name ./resultDataOpenSim/trcMotMarkerGrf/sub10/grf-02-01.mot
datacolumns 19
datarows 15
range 0.46000000 0.51600000
endheader

                time	     ground_force_vx	     ground_force_vy	     ground_force_vz	     ground_force_px	     ground_force_py	     ground_force_pz	   l_ground_force_vx	   l_ground_force_vy	   l_ground_force_vz	   l_ground_force_px	   l_ground_force_py	   l_ground_force_pz	     ground_torque_x	     ground_torque_y	     ground_torque_z	   l_ground_torque_x	   l_ground_torque_y	   l_ground_torque_z	
          0.46000000	          7.87423654	        384.05339978	        -16.39621427	         -0.74050846	          0.00000000	         -0.00371449	          0.00000000	          0.00000000	          0.00000000	          0.00000000	          0.00000000	          0.00000000	          0.00000000	          2.05353918	          0.00000000	          0.00000000	          0.00000000	          0.00000000	
          0.46400000	          8.31599515	        381.08911902	        -16.87530948	         -0.73903868	          0.00000000	         -0.00355941	          0.00000000	          0.00000000	          0.00000000	          0.00000000	          0.00000000	          0.00000000	          0.00000000	          2.05649058	          0.00000000	          0.00000000	          0.00000000	          0.00000000	
          0.46800000	          7.89762736	        378.80693172	        -17.57473114	         -0.73755480	          0.00000000	         -0.00341850	          0.00000000	          0.00000000	          0.00000000	          0.00000000	          0.00000000	          0.00000000	          0.00000000	          2.03654701	          0.00000000	          0.00000000	          0.00000000	          0.00000000	
          0.47200000	          7.00966627	        377.26088896	        -18.25597008	         -0.73613279	          0.00000000	         -0.00329974	          0.00000000	          0.00000000	          0.00000000	          0.00000000	          0.00000000	          0.00000000	          0.00000000	          2.02256859	          0.00000000	          0.00000000	          0.00000000	          0.00000000	
          0.47600000	          6.20388489	        376.48342299	        -18.70472104	         -0.73486458	          0.00000000	         -0.00320019	          0.00000000	          0.00000000	          0.00000000	          0.00000000	          0.00000000	          0.00000000	          0.00000000	          2.04241731	          0.00000000	          0.00000000	          0.00000000	          0.00000000	
          0.48000000	          6.04931793	        376.49983873	        -18.77947750	         -0.73383924	          0.00000000	         -0.00311158	          0.00000000	          0.00000000	          0.00000000	          0.00000000	          0.00000000	          0.00000000	          0.00000000	          2.11662956	          0.00000000	          0.00000000	          0.00000000	          0.00000000	
          0.48400000	          6.98050351	        377.33298210	        -18.44201207	         -0.73311434	          0.00000000	         -0.00302234	          0.00000000	          0.00000000	          0.00000000	          0.00000000	          0.00000000	          0.00000000	          0.00000000	          2.25361706	          0.00000000	          0.00000000	          0.00000000	          0.00000000	
          0.48800000	          9.18499268	        378.99162527	        -17.76159986	         -0.73268300	          0.00000000	         -0.00291935	          0.00000000	          0.00000000	          0.00000000	          0.00000000	          0.00000000	          0.00000000	          0.00000000	          2.44743812	          0.00000000	          0.00000000	          0.00000000	          0.00000000	
          0.49200000	         12.56311438	        381.45832475	        -16.89482773	         -0.73248180	          0.00000000	         -0.00279478	          0.00000000	          0.00000000	          0.00000000	          0.00000000	          0.00000000	          0.00000000	          0.00000000	          2.67878740	          0.00000000	          0.00000000	          0.00000000	          0.00000000	
          0.49600000	         16.76833353	        384.70041949	        -16.04980808	         -0.73242141	          0.00000000	         -0.00264323	          0.00000000	          0.00000000	          0.00000000	          0.00000000	          0.00000000	          0.00000000	          0.00000000	          2.91914644	          0.00000000	          0.00000000	          0.00000000	          0.00000000	
          0.50000000	         21.31496893	        388.69278544	        -15.44341399	         -0.73238746	          0.00000000	         -0.00246231	          0.00000000	          0.00000000	          0.00000000	          0.00000000	          0.00000000	          0.00000000	          0.00000000	          3.13719395	          0.00000000	          0.00000000	          0.00000000	          0.00000000	
          0.50400000	         25.71975779	        393.41990457	        -15.25842513	         -0.73226893	          0.00000000	         -0.00225481	          0.00000000	          0.00000000	          0.00000000	          0.00000000	          0.00000000	          0.00000000	          0.00000000	          3.30589747	          0.00000000	          0.00000000	          0.00000000	          0.00000000	
          0.50800000	         29.62993060	        398.85741690	        -15.60705139	         -0.73200138	          0.00000000	         -0.00202867	          0.00000000	          0.00000000	          0.00000000	          0.00000000	          0.00000000	          0.00000000	          0.00000000	          3.40846784	          0.00000000	          0.00000000	          0.00000000	          0.00000000	
          0.51200000	         32.89851966	        404.96512551	        -16.50757491	         -0.73156041	          0.00000000	         -0.00178766	          0.00000000	          0.00000000	          0.00000000	          0.00000000	          0.00000000	          0.00000000	          0.00000000	          3.44173258	          0.00000000	          0.00000000	          0.00000000	          0.00000000	
          0.51600000	         35.59191982	        411.69098849	        -17.88145996	         -0.73095153	          0.00000000	         -0.00153413	          0.00000000	          0.00000000	          0.00000000	          0.00000000	          0.00000000	          0.00000000	          0.00000000	          3.41633017	          0.00000000	          0.00000000	          0.00000000	          0.00000000	
